<?xml version="1.0" encoding="UTF-8" standalone="no"?>
<!-- Created with Inkscape (http://www.inkscape.org/) -->

<svg
   version="1.1"
   id="svg9"
   width="2375.5933"
   height="1728.8136"
   viewBox="0 0 2375.5933 1728.8136"
   sodipodi:docname="gamecube_controller.svg"
   inkscape:version="1.1.2 (b8e25be833, 2022-02-05)"
   xmlns:inkscape="http://www.inkscape.org/namespaces/inkscape"
   xmlns:sodipodi="http://sodipodi.sourceforge.net/DTD/sodipodi-0.dtd"
   xmlns="http://www.w3.org/2000/svg"
   xmlns:svg="http://www.w3.org/2000/svg">
  <defs
     id="defs13" />
  <sodipodi:namedview
     id="namedview11"
     pagecolor="#ffffff"
     bordercolor="#666666"
     borderopacity="1.0"
     inkscape:pageshadow="2"
     inkscape:pageopacity="0.0"
     inkscape:pagecheckerboard="0"
     showgrid="false"
     inkscape:zoom="0.31668589"
     inkscape:cx="1766.7348"
     inkscape:cy="560.49228"
     inkscape:window-width="1920"
     inkscape:window-height="991"
     inkscape:window-x="-9"
     inkscape:window-y="-9"
     inkscape:window-maximized="1"
     inkscape:current-layer="g15" />
  <g
     inkscape:groupmode="layer"
     inkscape:label="Image"
     id="g15">
    <path
       style="fill:#09bbd3;stroke:none;stroke-width:2.0339"
       d="m 485.50225,1096.7967 c 14.9532,38.764 15.9701,80.3796 27.9051,120 20.5545,68.2332 67.1735,128.6522 126.6711,167.4 141.0956,91.8855 336.8136,53.6767 431.70325,-86.044 34.9118,-51.4089 52.6088,-113.0808 54.1362,-174.9153 2.1478,-86.9757 -38.9105,-176.78663 -99.7444,-237.62053 -28.54785,-28.5478 -74.20885,-49.1329 -93.21365,-85.7695 125.28625,-25.92812 245.90455,-40.39118 374.23745,-28.1288 51.4637,4.91593 99.9498,20.69085 150.5084,28.1288 -23.6379,37.7919 -67.1979,57.8034 -97.5478,89.4916 -62.3654,65.1173 -99.5593,155.50783 -95.5932,246.10173 10.1451,231.6835 274.4624,376.2388 473.819,255.8564 65.1092,-39.3153 114.3112,-99.8339 137.6054,-172.4665 12.5187,-39.0366 16.3485,-80.4468 27.1404,-120 h 4.0678 c 7.2915,26.7152 18.2074,52.2142 24.6427,79.322 16.8508,70.9872 25.9261,143.6909 37.9058,215.5933 14.3715,86.2536 25.503,176.4367 68.2556,254.2373 53.223,96.8441 178.6332,117.2665 252.9925,30.5085 49.3424,-57.5593 63.9661,-138.6386 74.0949,-211.5254 21.417,-153.9642 18.6509,-311.1601 8.0543,-465.7629 -8.8678,-129.30723 -23.5933,-258.36823 -44.7661,-386.4408 -10.739,-64.99324 -13.3017,-125.47732 -40.556,-187.11869 -17.7356,-40.11459 -43.2,-76.94443 -72.061,-109.83054 -11.0034,-12.54712 -27.722,-22.91187 -36.8339,-36.6895 -4.922,-7.48068 -3.0305,-17.88204 -5.0847,-26.36136 -3.3356,-13.73086 -10.9628,-26.37357 -20.7255,-36.53086 -20.8678,-21.70475 -48.3864,-34.33242 -70.983,-53.62293 -13.9119,-11.88672 -24.3865,-27.3655 -38.6644,-39.07099 -35.2658,-28.918989 -82.3933,-47.675199 -128.1356,-49.678179 -33.7627,-1.47845 -70.4441,2.27186 -103.7288,6.61017 -12.9824,1.69179 -26.0706,13.32285 -38.6441,10.89763 -38.937,-7.51099 -77.1763,-21.60672 -115.9322,-30.50076 -85.0027,-19.50692 -171.5777,-34.408071 -258.3051,-43.698941 -243.8339,-26.1212692 -488.71945,-3.534 -726.10185,58.880981 -21.9112,5.76102 -52.863,21.78265 -75.2542,20.68109 -19.2183,-0.94515 -41.4732,-14.91356 -61.017,-18.87478 -48.9335,-9.9175 -101.3064,-3.13038 -146.4407,18.07281 -36.6386,17.211869 -69.2908,45.978729 -88.8569,81.580499 -8.577,15.60448 -12.301,43.3017 -24.0509,55.70849 -15.844,16.73288 -41.8942,27.49017 -59.9736,42.42713 -40.0584,33.09967 -74.2299,73.739 -99.0333,119.49155 -51.998496,95.91664 -55.075296,205.31395 -70.330996,311.18652 -36.2485,251.55663 -60.1264,518.30456 -20.959,770.84766 10.3565,66.777 24.524,139.0252 67.6099,193.2204 58.304596,73.3384 165.502596,84.1892 230.327096,14.2373 41.5789,-44.8678 59.5261,-108.5919 72.6915,-166.7797 19.5763,-86.5078 30.5349,-174.9722 45.2929,-262.3729 8.8149,-52.2082 16.3566,-114.0326 42.8766,-160.678 M 1960.0786,187.64384 c -35.3328,-8.41159 -76.2325,-5.21837 -111.8644,-0.26522 -173.2922,24.09031 -315.419,157.16831 -353.0359,327.72293 -20.4265,92.61969 11.8007,183.50649 -25.2692,272.54245 -179.5403,-41.53628 -370.1735,-57.22985 -549.15265,0 -30.7118,-52.82036 -20.3918,-111.29495 -16.4542,-168.81361 2.3064,-33.65899 -2.2332,-68.74374 -8.8658,-101.69494 -41.3369,-205.38717 -255.2237,-368.78673 -466.8834,-329.49161 16.4278,-19.16359 52.2488,-29.12807 75.2543,-38.62211 67.6332,-27.91139 138.5776,-47.12096 209.4915,-64.849439 172.7614,-43.19045 358.74925,-68.997081 536.94925,-61.194171 123.657,5.4147 246.7343,23.596331 368.1356,47.920541 87.7241,17.57675 177.781,40.560619 260.339,75.204019 22.4197,9.4076 68.2658,20.13723 81.3559,41.54116 M 572.95985,106.28789 c -11.9349,17.43824 -57.718,25.0617 -77.2881,33.41187 -37.8468,16.14936 -72.6163,37.79757 -109.8305,54.77554 -27.2197,12.41777 -57.5553,20.38008 -85.4238,31.81262 2.4082,-27.40963 21.9478,-54.28598 40.6861,-73.22036 45.24,-45.71391 109.0007,-66.852819 172.8732,-60.671809 20.4875,1.98265 39.1607,9.306109 58.9831,13.892139 M 2031.2651,138.83027 1897.0278,94.084501 c 10.9342,-4.58868 25.2122,-1.75526 36.6102,0.16495 32.3125,5.44353 76.6901,17.453089 97.6271,44.580819 m 128.1356,130.16953 -73.2204,-44.1173 -83.3898,-31.09771 -85.4237,-43.92184 -77.2882,-31.26956 -40.6779,-16.3733 c 25.3728,-10.706639 61.3261,-3.106369 87.4576,2.03533 74.162,14.59241 140.6868,43.88523 203.3898,85.43005 27.4983,18.22292 67.4848,42.82618 69.1526,79.31433 M 457.02765,196.36012 c 194.3695,-22.93404 386.28,129.37732 425.0787,316.70754 6.8806,33.22373 11.583,67.70849 10.0962,101.69494 -2.4468,55.84679 -12.3701,106.81833 9.4434,160.678 20.1051,49.63937 57.6631,72.64887 96.3987,106.35057 27.46585,23.8962 51.67935,53.0156 69.43325,84.8359 82.7553,148.32413 35.3004,338.60763 -118.24685,419.42863 -32.7437,17.2353 -69.1525,27.1383 -105.7627,31.5153 -132.0102,15.7891 -258.8522,-65.0177 -307.9241,-186.537 -25.6719,-63.5736 -17.7885,-130.0536 -64.8895,-185.0848 -46.0047,-53.74993 -109.7919,-67.90993 -170.2373,-98.13163 -57.0488,-28.5254 -107.421,-70.5153 -145.678,-121.5295 C 37.710554,670.23515 65.333954,443.19103 204.82415,309.7571 c 70.9262,-67.8468 156.0957,-102.05698 252.2035,-113.39698 m 1419.66115,0 c 31.9322,-3.7678 66.1017,0.13566 97.6271,5.35769 265.6272,43.99995 428.5831,368.24206 277.9526,600.16346 -40.1085,61.7288 -96.0407,112.6983 -162.0204,145.6882 -64.5254,32.2617 -133.1471,47.2515 -178.6678,108.54923 -38.4569,51.7871 -33.9152,112.4258 -55.3383,170.8475 -38.1173,103.9424 -137.8718,180.3153 -248.0278,190.8407 -190.7552,18.2278 -348.9376,-148.5071 -324.842,-337.2814 7.7796,-60.96 36.242,-124.26723 78.8196,-168.81363 43.8794,-45.9051 98.219,-74.6767 125.3939,-134.23737 34.1044,-74.74578 3.4719,-161.00343 15.7282,-240.00006 29.6562,-191.13361 187.5498,-319.18788 373.3749,-341.11432 m 242.0339,225.18209 c -6.2237,-13.36068 -19.3627,-23.97153 -30.5085,-33.37628 -28.5762,-24.1078 -69.2949,-52.75323 -107.7966,-56.11527 0,-22.69017 0.3132,-48.12205 -18.3925,-64.41561 -17.7946,-15.49831 -46.8956,-16.06983 -69.0651,-13.45424 -50.3939,5.95119 -116.2027,8.95932 -156.4271,44.24544 -18.4963,16.22644 -24.2766,40.48475 -22.3668,64.13289 0.6305,7.80814 7.4664,18.66509 3.9152,26.09492 -6.1769,12.91933 -24.0833,25.46645 -33.3681,36.95595 -18.2705,22.60882 -32.341,48.28272 -43.0414,75.25425 -12.0284,30.31526 -16.8386,63.2929 -19.0393,95.59325 -0.842,12.37017 4.5377,26.43255 1.2061,38.43052 -2.7498,9.90712 -18.4922,14.52814 -25.7939,20.92881 -15.6468,13.71458 -27.8542,31.74917 -31.5966,52.5051 -9.5898,53.17832 27.7363,110.42243 84.478,111.83393 12.6041,0.3152 24.5776,-0.073 36.6102,-4.198 8.284,-2.8393 17.762,-9.9518 26.4406,-5.3695 30.6529,16.1838 53.8841,40.8061 87.4577,53.4794 103.141,38.9308 223.9668,16.5335 302.8678,-62.3695 20.8678,-20.86173 39.1118,-46.6536 52.3118,-73.03734 6.5492,-13.0861 9.9865,-37.65357 20.4814,-47.58713 6.6102,-6.25424 20.7661,-2.83322 29.0847,-3.44339 16.2306,-1.19187 31.8712,-8.72136 41.3899,-22.19797 18.4474,-26.08475 11.8169,-68.18646 7.9932,-97.61901 -6.5492,-50.43662 -17.5729,-139.09427 -81.9254,-146.08682 -20.8475,-2.26576 -35.6136,4.25695 -54.9153,9.8156 m -240,-153.99462 c 20.339,-2.40813 53.4793,-5.13559 71.1559,6.94984 26.3756,18.03458 24.3499,71.58306 1.977,91.69629 -24.4841,22.00882 -67.381,15.5878 -97.5397,22.11865 -23.5261,5.09492 -45.1118,18.28272 -69.1525,20.67865 -52.1187,5.19458 -76.9648,-60.14036 -44.0766,-97.0963 30.3701,-34.12679 95.1173,-39.31526 137.6359,-44.34713 M 452.95985,320.71167 c -43.3403,5.90035 -82.6271,19.44001 -120,42.26239 -31.0637,18.97017 -58.0088,44.88611 -78.6163,74.83934 -104.7293,152.23529 -39.417,375.54927 141.6671,433.16147 41.6197,13.2427 84.8584,17.0644 128.1356,11.6807 38.1051,-4.741 74.8292,-18.3987 107.7967,-37.7797 28.6596,-16.8488 54.2725,-39.2644 74.825,-65.36747 125.6624,-159.58784 45.8217,-401.68688 -152.1132,-452.27808 -31.9057,-8.15593 -68.9593,-10.97492 -101.6949,-6.51865 m 4.0678,11.92069 c 32.5383,-3.89289 68.103,-0.54509 99.661,7.86915 32.0298,8.54034 62.9919,23.2617 89.4915,43.15933 152.2068,114.28274 142.9302,353.22925 -22.3728,451.56823 -31.7919,18.9132 -68.9309,31.4644 -105.7628,35.4671 -37.7532,4.1024 -75.3783,1.4095 -111.8644,-9.8827 -176.0115,-54.484 -246.4743,-270.18715 -139.4684,-418.93227 20.8759,-29.01764 47.8515,-53.23324 78.4515,-71.59324 34.3952,-20.63594 72.0935,-32.90035 111.8644,-37.6556 M 1634.6549,637.13548 c -8.4631,-66.96408 7.2529,-135.68749 46.2122,-191.18649 9.2603,-13.19186 26.7864,-41.93899 43.2793,-46.07594 11.6929,-2.93492 33.3092,20.85357 48.8136,21.5878 26.9105,1.27526 49.8935,-13.18373 75.2542,-19.49492 36.181,-9.00203 85.3322,-0.8461 113.8109,-29.32475 9.3986,-9.39865 13.1308,-20.64407 18.3925,-32.45492 36.7993,11.97356 69.3966,28.01288 99.661,52.48476 9.4577,7.63932 25.7085,19.04542 29.8373,30.90509 2.6644,7.62102 -4.9627,14.36136 -8.522,20.33899 -5.7153,9.58983 -9.2136,21.33153 -9.0102,32.54238 0.4271,22.02509 11.4916,42.24814 17.3288,63.05086 5.2272,18.62034 5.2882,37.90984 7.5661,56.94917 2.278,19.25695 4.0272,41.13153 16.4746,56.94713 6.2034,7.88949 29.4102,17.54441 30.4882,26.71323 2.4406,20.67865 -20.4407,54.51052 -31.2814,70.91595 -44.1153,66.69355 -117.0468,113.98985 -197.2881,121.68815 -59.1906,5.6787 -119.158,-6.0285 -170.8475,-36.2888 -11.4468,-6.6997 -40.2936,-21.3376 -44.042,-34.8976 -1.857,-6.71191 6.84,-13.33022 10.4481,-17.95937 9.301,-11.93492 15.7241,-25.74509 18.4108,-40.67798 12.5573,-69.76476 -52.7369,-113.62986 -114.9864,-105.76274 M 483.46835,384.35033 c -12.716,1.33221 -26.939,10.13696 -38.6441,15.12408 -24.2827,10.34237 -48.8217,20.15593 -73.2203,30.22577 -11.8272,4.88135 -32.579,9.29695 -41.0543,19.13288 -18.179,21.09967 -26.3308,60.94985 -37.0962,86.60748 -8.036,19.14916 -25.4421,46.11866 -25.1756,67.11866 0.1545,12.28475 8.4772,25.44001 13.0271,36.61018 10.5274,25.83662 21.5979,51.45358 32.1234,77.28816 4.8183,11.83119 9.0101,30.69357 18.3478,39.66306 19.6434,18.86644 63.421,28.15729 88.6413,38.43255 18.2421,7.43182 47.2475,26.62782 67.1187,24.77492 11.5444,-1.0759 23.8861,-8.6827 34.5762,-12.9722 25.8773,-10.38306 51.5777,-21.29696 77.2882,-32.08679 12.3864,-5.19661 32.3857,-9.36407 41.3918,-19.72679 18.0061,-20.71526 25.6373,-59.67255 36.4678,-84.86442 8.3899,-19.5173 24.7689,-45.69968 25.5702,-67.11867 0.4536,-12.14644 -7.861,-25.57221 -12.3132,-36.61017 -10.7044,-26.54849 -22.139,-52.81019 -32.941,-79.32206 -4.6963,-11.53017 -8.9085,-30.8217 -18.3478,-39.25628 -20.8943,-18.66712 -62.7641,-27.37424 -88.6414,-38.05425 -18.0691,-7.45627 -47.3329,-27.03458 -67.1186,-24.96611 m 0,13.6434 c 18.9132,-1.76339 45.7139,16.12882 63.0508,23.13967 24.6468,9.97017 61.8143,18.27661 82.377,35.1356 9.3356,7.65559 12.84,25.63729 17.3064,36.45967 10.6393,25.7878 21.6529,51.42713 32.1112,77.28815 3.8949,9.62848 12.0081,21.90509 11.4142,32.54238 -0.6976,12.52272 -9.5959,27.23391 -14.5017,38.64408 -9.5593,22.23662 -18.6874,44.70306 -27.8196,67.11866 -4.6922,11.52204 -8.9065,30.83594 -18.3478,39.25628 -10.1471,9.04882 -29.3166,13.38916 -41.8617,18.50035 -29.76,12.12407 -67.7512,36.8929 -99.661,40.2305 -18.3844,1.9241 -48.2197,-17.27999 -65.0848,-24.46168 -23.5118,-10.01492 -61.2061,-17.60747 -80.343,-34.5112 -8.7783,-7.75526 -12.1953,-24.43729 -16.7126,-34.94645 -10.7064,-24.90306 -21.0101,-50.08679 -31.08,-75.25426 -4.1654,-10.40949 -12.5023,-23.22712 -12.7973,-34.57628 -0.4962,-19.06373 16.8102,-45.5878 24.1383,-63.05086 10.0536,-23.96136 17.6807,-61.1573 34.7248,-80.79663 8.4122,-9.6956 25.8427,-13.35661 37.3241,-18.29289 30.7362,-13.21424 72.5166,-39.32543 105.7627,-42.42509 m 1667.79675,26.19458 c 83.5119,-12.3356 87.6,108.67325 94.1491,164.1336 3.8238,32.54035 -0.3661,71.07256 -39.2339,76.67799 -8.461,1.2183 -17.9389,1.16949 -26.4406,0.25627 -59.756,-6.41899 -46.2305,-76.96883 -55.7899,-119.64613 -5.5729,-24.99459 -22.5356,-50.92476 -18.8542,-77.28816 3.2949,-23.64611 22.9017,-40.69831 46.1695,-44.13357 M 463.12935,450.8873 c -131.4488,18.87458 -174.3071,191.22513 -71.1865,272.34516 14.7865,11.63186 32.6645,20.59729 50.8475,25.45221 23.0563,6.15457 45.6285,7.42169 69.1526,3.78101 20.0054,-3.09762 39.9396,-11.0461 56.9491,-21.9539 16.2041,-10.39119 30.7709,-24.76069 41.817,-40.49493 75.7403,-107.88816 -17.6238,-257.78854 -147.5797,-239.12955 m 1427.79675,-0.006 c -27.8766,3.79525 -54.5532,12.32949 -77.2881,29.43865 -120.9804,91.04952 -41.7255,291.85431 109.8305,272.16007 23.2088,-3.01627 45.4088,-11.37763 65.0847,-23.92882 127.261,-81.179 55.6882,-298.54177 -97.6271,-277.6699 M 469.23105,462.80798 c 143.9837,-18.70983 214.8102,180.897 91.5254,257.58312 -15.8807,9.87865 -34.2935,17.20068 -52.8813,19.86305 -43.5885,6.24407 -90.0753,-6.88271 -121.6882,-38.3817 -62.1051,-61.8773 -51.1241,-174.83801 26.0949,-219.56548 17.5505,-10.16746 36.7933,-16.87933 56.9492,-19.49899 m 1429.83065,0 c 14.4041,-1.52746 30.8929,2.02577 44.7458,5.82305 113.9593,31.23052 133.5457,190.19802 34.5762,251.76007 -17.4854,10.87729 -38.4488,18.07322 -58.983,20.12543 -127.1329,12.71187 -204.6061,-146.22106 -113.5526,-237.27261 25.7614,-25.76136 57.8482,-36.68136 93.2136,-40.43594 M 465.16325,499.77613 c -13.8346,2.48949 -27.0366,8.21898 -38.6441,16.05763 -89.0847,60.15662 -31.7085,208.10242 75.2543,189.20344 15.3498,-2.71119 29.8027,-7.66577 42.7118,-16.59458 91.5966,-63.36002 29.1926,-208.19802 -79.322,-188.66649 m 8.1356,7.77763 c 119.1356,-15.51865 148.4807,170.66241 28.4746,187.95462 -15.2807,2.20068 -32.1051,1.15322 -46.7797,-3.51661 -94.7736,-30.15255 -78.3336,-171.84818 18.3051,-184.43801 m -6.1017,20.80475 c -93.2543,19.8956 -60.3234,167.78851 32.5424,148.09427 98.4203,-20.87187 65.2698,-168.96207 -32.5424,-148.09427 m 10.1695,7.6922 c 82.2915,-11.85356 103.7349,118.66376 20.339,130.98105 -87.5044,12.92543 -108.1912,-118.32613 -20.339,-130.98105 m 701.69505,4.51119 c -88.3343,18.84407 -54.6305,153.8014 32.5423,134.17224 87.3458,-19.6678 54.3519,-152.71123 -32.5423,-134.17224 m 4.0678,11.81899 c 71.4508,-12.52882 96.0406,97.9668 24.4067,110.52613 -71.7152,12.57559 -97.021,-97.79393 -24.4067,-110.52613 m 461.6949,95.53426 c 102.8237,-14.82306 129.6814,144.57359 26.4407,159.45762 -103.0577,14.8577 -130.0068,-144.52677 -26.4407,-159.45762 M 72.620854,663.57617 c 16.2014,125.45698 108.176696,231.5573 215.593196,291.1302 50.7397,28.139 111.3722,37.8773 154.5763,79.11873 10.5214,10.0455 27.8726,23.697 31.4115,38.5648 3.3377,14.0237 -12.4108,37.4237 -17.0135,50.8475 -12.4393,36.2786 -19.8,74.2901 -27.0021,111.8644 -24.5939,128.3085 -25.9057,274.0618 -85.5274,392.5425 -33.8787,67.324 -102.8543,114.541 -178.4787,80.7213 C 82.525054,1670.9541 58.780354,1573.6219 44.987454,1491.373 c -32.8433,-195.8502 -22.8746,-401.3838 -3.2188,-597.96623 5.2991,-52.9973 11.9827,-105.74243 18.3333,-158.64414 2.3961,-19.96069 1.1398,-54.55324 12.5189,-71.18646 m 2247.457846,0 c 32.1762,254.4326 64.6169,512.58933 33.1118,768.81383 -11.3085,92.0786 -24.7932,217.5417 -114.4678,268.7329 -77.0847,44.0034 -152.461,1.9851 -191.4712,-69.4108 -27.5695,-50.4814 -39.2827,-110.7275 -49.3912,-166.7797 -13.7817,-76.4116 -25.021,-153.2767 -37.9464,-229.8306 -6.5614,-38.8597 -14.9797,-78.8197 -28.4197,-115.9322 -4.5112,-12.4556 -19.9566,-35.815 -15.0488,-48.8136 8.9227,-23.6299 37.7207,-43.617 57.8705,-56.941 59.158,-39.12013 129.6204,-53.03603 187.1187,-96.93163 53.4915,-40.8346 100.2508,-95.1946 127.2813,-157.31396 8.9492,-20.58712 16.4136,-41.39391 22.3526,-63.05086 2.9288,-10.65966 3.2746,-23.01967 9.0102,-32.54238 m -744.4069,255.3438 c -33.3518,6.5451 -68.103,26.5037 -99.661,39.1647 -12.4495,4.9953 -32.3918,9.5736 -41.6969,19.5133 -17.3431,18.5247 -25.8753,57.20753 -35.8963,80.55463 -7.4807,17.4264 -23.3959,41.941 -23.699,61.017 -0.1932,12.2156 7.7654,25.505 12.2075,36.6101 l 29.2881,73.2204 c 4.4543,11.1336 8.398,28.7919 17.8861,36.6732 20.2597,16.8305 56.2617,25.4909 80.5546,35.6848 16.8,7.0495 46.7939,27.0183 65.0847,23.8393 33.6468,-5.8475 69.9214,-27.7586 101.695,-40.4685 11.9003,-4.7613 30.6183,-8.5566 39.665,-17.9349 18.3377,-19.0109 27.5939,-60.2197 37.6455,-84.5736 6.8461,-16.5885 23.6949,-40.8976 23.282,-58.983 -0.2583,-11.2984 -8.1803,-24.2217 -12.3213,-34.5763 -9.7831,-24.4556 -19.9119,-48.7628 -29.695,-73.2204 -4.3769,-10.9444 -7.9118,-28.63323 -16.8793,-36.67933 -18.9112,-16.9648 -55.0312,-25.0353 -78.3071,-35.0787 -17.8556,-7.7044 -49.5783,-28.6047 -69.1526,-24.7627 m -791.18655,1.798 c -28.9464,4.1471 -56.6684,14.1091 -81.3559,29.7457 -22.8793,14.4916 -42.4129,32.2922 -57.6183,54.80753 -98.2251,145.4584 23.3919,342.1201 197.9573,317.0218 26.5119,-3.8115 52.3017,-13.7207 75.2542,-27.4027 22.1838,-13.2244 41.3105,-30.8766 56.6319,-51.6529 104.00955,-141.0367 -15.3315,-347.66663 -190.8692,-322.51943 m 8.1356,7.8447 c 169.9444,-20.3227 275.63605,187.39533 169.5946,316.70863 -14.7742,18.0183 -33.0163,34.2203 -53.6624,45.1891 -21.9071,11.638 -44.4081,20.3024 -69.1525,23.3817 -166.202,20.6787 -283.1512,-168.7729 -184.2143,-306.537 14.756,-20.54443 34.4889,-38.48143 56.0787,-51.63053 24.8563,-15.1383 52.5559,-23.6665 81.3559,-27.1119 m 787.11875,2.8942 c 10.7655,0.2787 22.8082,7.7878 32.5424,11.9411 l 69.1526,29.6359 c 10.1288,4.3485 25.8996,7.857 33.1545,16.5254 15.7302,18.79333 23.2292,53.95943 32.337,76.72893 6.5247,16.3098 21.1119,39.2685 21.1119,56.9492 0,23.2779 -21.7139,55.92 -30.8319,77.2881 -7.0658,16.562 -13.377,45.0915 -26.5607,57.5614 -15.8725,15.0142 -49.6881,21.8176 -69.8888,29.8963 -18.0976,7.2386 -45.4454,24.7403 -65.0848,23.7681 -18.6569,-0.9234 -41.9084,-15.8359 -58.983,-23.1966 -22.021,-9.4943 -54.4027,-16.9383 -72.7627,-32.4 -9.3193,-7.8468 -12.7444,-24.3153 -17.1356,-35.2902 l -26.8475,-67.1187 c -3.9071,-9.7708 -11.5505,-21.9864 -12.1973,-32.5423 -1.0556,-17.1906 16.1228,-43.2529 22.8753,-58.9831 9.421,-21.9519 17.579,-59.0706 34.1675,-76.27333 7.7288,-8.0135 23.1213,-11.1986 33.2562,-15.2522 23.101,-9.24 46.0821,-18.7647 69.1526,-28.0658 9.6244,-3.8827 21.9722,-11.4467 32.5423,-11.1722 M 756.01075,1178.1526 v 65.0848 c 0,9.9112 -1.6089,21.5837 4.0861,30.3173 12.3925,19.0047 65.1335,11.5403 85.4054,10.2712 7.7654,-0.4861 14.4183,-3.48 18.8298,-10.1695 5.5607,-8.4346 3.5431,-20.8149 3.5431,-30.419 v -65.0848 c 24.8501,0 74.1518,9.4007 95.5057,-4.0861 5.8516,-3.6976 9.9397,-9.5186 11.4895,-16.2529 4.4075,-19.1512 7.8305,-74.8088 -9.7505,-87.1566 -15.6407,-10.9851 -50.3024,-4.3688 -68.7702,-4.3688 -7.1247,0 -19.6535,2.2983 -25.2142,-3.2604 -5.5607,-5.5606 -3.2603,-18.0895 -3.2603,-25.2142 0,-28.7736 10.8956,-78.80343 -30.5085,-79.31393 -21.5187,-0.2665 -69.9681,-9.238 -79.8468,16.2711 -6.6529,17.1784 -1.5091,44.72143 -1.5091,63.04283 0,7.1247 2.3003,19.6536 -3.2604,25.2142 -5.5607,5.5587 -18.0895,3.2604 -25.2142,3.2604 -17.7702,0 -51.7973,-6.48 -67.0292,3.543 -6.4596,4.2529 -10.2732,11.3594 -11.6237,18.8299 -3.6488,20.2088 -7.9322,72.9946 11.6237,85.4054 21.2827,13.5051 70.7065,4.0861 95.5038,4.0861 m 22.4115,-206.23123 c 8.221,-3.1668 19.7613,-1.2265 28.4359,-1.2265 11.9715,0 31.5926,-3.661 42.2482,2.6807 8.5362,5.0807 6.5654,17.3695 6.5654,25.7939 v 54.91533 c 0,6.9437 -1.2448,16.1247 4.7146,21.1464 13.2223,11.1397 57.6793,3.2604 74.6074,3.2604 8.4448,0 20.8027,-2.2597 25.7939,6.4027 6.2726,10.8834 2.6807,30.2664 2.6807,42.4109 0,11.821 3.6732,31.9383 -10.259,37.4176 -18.2888,7.1919 -49.4481,1.2264 -69.063,1.2264 -7.5072,0 -21.4963,-2.6115 -26.3838,4.7146 -9.6712,14.4915 -2.0908,55.2651 -2.0908,72.5736 0,9.1912 2.3369,22.9688 -8.2556,27.2481 -8.5729,3.4617 -21.2827,1.2265 -30.3885,1.2265 -11.3634,0 -32.2902,3.9966 -42.2481,-2.0909 -8.4997,-5.1966 -6.5655,-17.9471 -6.5655,-26.3837 v -52.8814 c 0,-6.3071 1.6719,-16.2122 -3.2603,-21.1464 -4.9342,-4.9322 -14.8393,-3.2604 -21.1464,-3.2604 h -52.8814 c -8.4366,0 -21.1871,1.9343 -26.3837,-6.5654 -6.0875,-9.958 -2.0909,-30.8848 -2.0909,-42.2481 0,-10.737 -4.2935,-32.3492 8.2556,-37.4177 18.0631,-7.2935 49.5885,-1.2264 69.0326,-1.2264 7.621,0 21.3274,2.3979 26.3837,-4.9505 9.9214,-14.4143 2.0888,-56.9573 2.0908,-74.37163 0,-10.1675 -1.3667,-22.7858 10.2082,-27.2481 m 783.01235,44.41223 c -15.0916,2.3756 -29.8516,8.0441 -42.7119,16.2793 -91.1532,58.3668 -37.2081,211.0801 71.1864,195.5167 17.4468,-2.5058 34.1512,-8.2658 48.8136,-18.1668 92.6705,-62.577 31.981,-210.82793 -77.2881,-193.6292 m 4.0678,11.8983 c 96.2196,-12.5349 146.3471,117.9783 65.0847,172.08 -14.16,9.4272 -30.0183,14.0909 -46.7797,15.897 -117.0101,12.602 -135.0223,-172.7716 -18.305,-187.977 z"
       id="path251" />
  </g>
</svg>
